<svg id="Layer_1" data-name="Layer 1" xmlns="http://www.w3.org/2000/svg" xmlns:xlink="http://www.w3.org/1999/xlink" viewBox="0 0 902.9 443.54"><defs><style>.cls-1{font-size:44.38px;font-family:Candara;}.cls-1,.cls-2{fill:#0a3542;}.cls-3{fill:#3d4766;}.cls-4{fill:#7e8959;}.cls-5{fill:url(#radial-gradient);}.cls-6{fill:#bfbfbf;}</style><radialGradient id="radial-gradient" cx="235.66" cy="259.6" r="109.02" gradientTransform="translate(0 7.56) scale(1 0.95)" gradientUnits="userSpaceOnUse"><stop offset="0.28" stop-color="#fff"/><stop offset="1" stop-color="#fcee21"/></radialGradient></defs><text class="cls-1" transform="translate(398.18 292.32) scale(0.97 1)">Helping academics glow</text><path class="cls-2" d="M461.69,314.9h5.41v23.78H412.43v-6.23l10.72-3.05L421.74,332V244.43l1.41,2.61-10.72-2.61V238.2l18.08-.73H465.8v22.91h-5.41l-1.95-15.95,1.84,1.88H429l1.62-2.17v40.6L429,282.56h28.9v8.71H429l1.62-2.47V332L429,329.83h32.69L459.74,332Z" transform="translate(-78.55 -103.09)"/><path class="cls-2" d="M472.52,338.68v-6.23l9.41-2.32L479.55,332,497,298.08l2.06-.58,17.43-34.94,12.12-1v6.38l-9.31,2.76,2.71-2.33-17,32.34-1.84.58-18.51,37.41Zm33,0v-6.23l8-1.74-.55,1.74-15.37-30-17.75-34.08,2.16,2.33-8.33-1.89v-6.23l23.16-1v6.38l-8.44,2,.76-2,14.4,28.13,18.73,36-1.84-1.74,9.2,2.18v6.23Z" transform="translate(-78.55 -103.09)"/><path class="cls-2" d="M577,332.16l-1.41-2.61,10,2.61v6.38l-15.16.87-1.3-13.92.76.43a37.26,37.26,0,0,1-10.28,10.51A19.84,19.84,0,0,1,548.84,340a13.15,13.15,0,0,1-10.61-5.37q-4.34-5.37-4.33-16.24,0-8.55,2.7-13.12a14.84,14.84,0,0,1,7.47-6.45,29.85,29.85,0,0,1,11-1.89H569.3l-1,1.45V284.45q0-8-3.14-11.38a11.22,11.22,0,0,0-8.67-3.41,26.67,26.67,0,0,0-6.22.8,35.67,35.67,0,0,0-7,2.54l1.3-1.89-1.09,13.2H537.8l-.87-18a72.19,72.19,0,0,1,11.58-4.14,40.57,40.57,0,0,1,10-1.38q8.67,0,13.59,5.15T577,282.42Zm-34.32-14.79q0,7.1,2.54,10.44a7.79,7.79,0,0,0,6.44,3.33c2.53,0,5.32-1,8.39-3.12a41.35,41.35,0,0,0,8.93-8.48l-.64,3V303.16l1,1.3H556.42q-7.7,0-10.72,3.12T542.67,317.37Z" transform="translate(-78.55 -103.09)"/><path class="cls-2" d="M617,340a19.23,19.23,0,0,1-12.5-4.57q-5.58-4.57-8.77-13.27t-3.19-20.88a65.58,65.58,0,0,1,2.21-18.2,37.93,37.93,0,0,1,6-12.54,24.54,24.54,0,0,1,8.72-7.32,23.06,23.06,0,0,1,10.23-2.4,30.32,30.32,0,0,1,9.26,1.6,29.33,29.33,0,0,1,8.6,4.35l-.43,18.13h-5.85l-1.4-13.63.86,1.3a18.4,18.4,0,0,0-5.74-2.46,23.18,23.18,0,0,0-5.41-.73,13.62,13.62,0,0,0-9.69,3.84A24.63,24.63,0,0,0,603.73,284a55.72,55.72,0,0,0-2.17,16.53,53.29,53.29,0,0,0,2.27,16.67q2.28,6.82,6.23,10.3A13.19,13.19,0,0,0,619,331a18.39,18.39,0,0,0,8.23-2.18,39.58,39.58,0,0,0,9-6.52l3,6.38A41.49,41.49,0,0,1,628,337.23,24.8,24.8,0,0,1,617,340Z" transform="translate(-78.55 -103.09)"/><path class="cls-2" d="M665,340a10.2,10.2,0,0,1-8.87-4.72q-3.25-4.71-3.25-14.28V268.35l1.4,1.89H643.13v-6.38l11.26-2.17L652.88,264V244.87l8.66-1.89v21l-1.19-1.89h17l-.32,8.12H660.35l1.19-1.89v51c0,4.06.59,7,1.78,8.84a5.67,5.67,0,0,0,5,2.76,11.88,11.88,0,0,0,4.22-.87,29,29,0,0,0,4.87-2.47l1.84,6.67Q671.61,340,665,340Z" transform="translate(-78.55 -103.09)"/><path class="cls-2" d="M719,338.68v-6.23l12.56-3.05-1.73,3.19V244.14l1.95,2.17H710.9l2.17-2.46-2.17,18.42h-5.41v-24.8H763v24.8h-5.41l-2.17-18.13,2.17,2.17h-20.9l2-2.17v88.45L737,329.4l12.45,3.05v6.23Z" transform="translate(-78.55 -103.09)"/><path class="cls-2" d="M767.52,338.68v-6.23l9.53-2.76L776,331.87v-62.5l1.19,2.18-9.64-2.76v-6.23l15.16-1,1.19,14.21-1.19-.58a54.1,54.1,0,0,1,9.53-10.59,15.82,15.82,0,0,1,10.17-3.77,20.28,20.28,0,0,1,7.26,1.46L809,283.44h-5.41l-1.3-15.23,1,2.61a8.19,8.19,0,0,0-1.62-.43,10.22,10.22,0,0,0-1.74-.15,12.83,12.83,0,0,0-8.39,3.48,44.21,44.21,0,0,0-7.74,9l.87-3.48v52.64l-1.3-2.18,11.8,2.76v6.23Z" transform="translate(-78.55 -103.09)"/><path class="cls-2" d="M856.41,332.16,855,329.55l10,2.61v6.38l-15.16.87-1.3-13.92.76.43A37.26,37.26,0,0,1,839,336.43,19.84,19.84,0,0,1,828.26,340a13.17,13.17,0,0,1-10.61-5.37q-4.33-5.37-4.33-16.24,0-8.55,2.71-13.12a14.76,14.76,0,0,1,7.47-6.45,29.76,29.76,0,0,1,11-1.89h14.18l-1,1.45V284.45q0-8-3.14-11.38a11.21,11.21,0,0,0-8.66-3.41,26.68,26.68,0,0,0-6.23.8,35.67,35.67,0,0,0-7,2.54l1.3-1.89L823,284.31h-5.73l-.87-18a72.19,72.19,0,0,1,11.58-4.14,40.57,40.57,0,0,1,10-1.38q8.67,0,13.59,5.15t4.93,16.46Zm-34.32-14.79q0,7.1,2.54,10.44a7.79,7.79,0,0,0,6.44,3.33q3.79,0,8.39-3.12a41.61,41.61,0,0,0,8.94-8.48l-.65,3V303.16l1,1.3H835.84q-7.7,0-10.72,3.12T822.09,317.37Z" transform="translate(-78.55 -103.09)"/><path class="cls-2" d="M896.46,340a19.23,19.23,0,0,1-12.5-4.57q-5.58-4.57-8.77-13.27T872,301.27a66,66,0,0,1,2.21-18.2,37.93,37.93,0,0,1,6-12.54,24.54,24.54,0,0,1,8.72-7.32,23.06,23.06,0,0,1,10.23-2.4,30.27,30.27,0,0,1,9.26,1.6,29.33,29.33,0,0,1,8.6,4.35l-.43,18.13h-5.85l-1.4-13.63.86,1.3a18.4,18.4,0,0,0-5.74-2.46,23.18,23.18,0,0,0-5.41-.73,13.62,13.62,0,0,0-9.69,3.84A24.63,24.63,0,0,0,883.15,284,55.72,55.72,0,0,0,881,300.55a53.29,53.29,0,0,0,2.27,16.67q2.28,6.82,6.23,10.3a13.19,13.19,0,0,0,8.93,3.48,18.39,18.39,0,0,0,8.23-2.18,39.36,39.36,0,0,0,9-6.52l3,6.38a41.49,41.49,0,0,1-11.26,8.55A24.8,24.8,0,0,1,896.46,340Z" transform="translate(-78.55 -103.09)"/><path class="cls-2" d="M923.2,338.68v-6.23l9.85-2.9-1.3,2.46V234.86l.87,1.74L923.2,234v-6.23l17.22-1v67.43l-1.63-1.89h14.94l-2.27,1.6,11.47-24.94.76,1.59-8.88-1.74v-6.23l23.71-1v6.24l-9.63,2.61,2.49-2.18-13.21,28.57-.11-3.48,16.13,38.28-1.62-1.89,8.88,2.76v6.23H967.91l-16.13-39.44,1.74,1.16H938.79l1.63-1.3V332l-1.19-2.46,9.41,2.9v6.23Z" transform="translate(-78.55 -103.09)"/><path class="cls-3" d="M184.16,363.75c-4.27.26-8.3.81-10.41-3.51,1.88-3.84,5.67-3.71,9.36-3.34,1.93-3.83,1.19-6.94-2.14-9.3-1.14-.8-2.41-1.46-3.64-2.16-13.11-7.44-24.69-16.51-34.06-27.93a98.44,98.44,0,0,1-20.53-43.69,105.06,105.06,0,0,1-1.84-30.57c2.32-25.66,12.87-47.93,32.19-66.38,18.29-17.46,40.63-27.8,66.34-31.56a115.41,115.41,0,0,1,67.7,10.45C312.62,168,331.31,186.25,342.5,211a98,98,0,0,1,8.13,33.49,102.42,102.42,0,0,1-5.74,43.07c-8.9,24.4-25.59,43-48.75,56.67-1.55.92-3.1,1.86-4.74,2.63a6.47,6.47,0,0,0-4.1,6.95c.07.95.2,1.9.3,2.84,2.44.48,4.92-.61,7,.77a34.19,34.19,0,0,1,3.37,2.9c-1.4,1.57-2.57,3.12-4.58,3.39a43.12,43.12,0,0,1-5.59,0v16.31a40,40,0,0,1,5.62.37c1.94.39,3.1,2,4.48,3.37-1.3,1.38-2.51,2.8-4.32,3.2a32.77,32.77,0,0,1-5.45.37c-.53,1.52-.68,11.86-.18,15.11,3.54.05,7.46-.55,9.7,3.19-1.89,4.23-5.82,4.33-10.13,3.72a15.86,15.86,0,0,0-.25,1.92c0,4.71,0,9.42,0,14.13a21.76,21.76,0,0,1-.09,2.68c-.3,2.34-1.67,3.63-4.18,3.9a23,23,0,0,1-2.63,0H264.78c-.62,0-1.24.08-2.06.13-.06.9-.16,1.7-.16,2.49,0,3.22,0,6.43,0,9.65,0,3.58-1.35,4.92-5.17,4.92q-21.72,0-43.42,0h-.72c-3.08-.18-4.31-1.36-4.34-4.23s0-5.83,0-8.74a20.94,20.94,0,0,0-.18-2.23,2.14,2.14,0,0,0-2.25-1.93c-.71-.06-1.43-.06-2.15-.07-4.8,0-9.6,0-14.39,0s-5.78-1.07-5.78-5.5q0-29.93,0-59.87Zm95.43-7.27c0-2.43.08-4.58,0-6.72a6.62,6.62,0,0,1,3.4-6.27,22.71,22.71,0,0,1,2.28-1.24c44-20.85,68.5-69.65,54.51-117-7.95-26.89-25.49-47.11-51.31-60.86-23.79-12.66-49.33-16.6-76.14-10.92-29.42,6.24-52,21.82-68.34,45.41a90,90,0,0,0-16.09,45.46,103.93,103.93,0,0,0,2.35,30.08,92.47,92.47,0,0,0,27.5,48.13,127.32,127.32,0,0,0,24,17.46,45.66,45.66,0,0,1,6.9,4.8,9.82,9.82,0,0,1,3.39,8.75c-.24,2.86-.23,2.91,2.81,2.92h84.79Zm-87.52,7.68v60.52c2.78.54,85.61.41,87.29-.1.4-2.82.28-13.09-.23-14.88-2.24-.07-4.54-.21-6.84-.22q-21.84-.11-43.66-.17a19.57,19.57,0,0,1-2.87-.14c-1.69-.26-3.25-1.6-3.41-2.79s1.18-2.92,2.63-3.48a5.54,5.54,0,0,1,1.87-.27c3.76,0,7.51,0,11.27,0q18.11,0,36.22-.09c1.72,0,3.44-.23,5.14-.35V387.27c-.92,0-1.7-.11-2.48-.11l-43.18.06c-1.68,0-3.36-.06-5-.06-2.8,0-4.74-1.36-6.44-3.51,1.37-1,2.58-1.93,3.92-2.72a4.69,4.69,0,0,1,2.25-.59c3,0,5.91.09,8.86.09q18.23,0,36.46-.11c1.81,0,3.63-.15,5.54-.23V364.16Zm43.33,78.62h16.06a13.77,13.77,0,0,0,1.44,0c2-.24,2.77-1,2.81-2.95,0-1.64,0-3.29,0-4.93s-.84-2.46-2.58-2.69a17.26,17.26,0,0,0-2.16-.06H225.75c-2.32,0-4.64-.08-7,0s-3.12,1-3.15,3.1c0,1.42,0,2.84,0,4.26,0,2.31.76,3.09,3.22,3.27.72.06,1.44,0,2.16,0Z" transform="translate(-78.55 -103.09)"/><path class="cls-3" d="M183.33,522.4c-23.84-1.62-41.58-11.36-53.9-29.57a74,74,0,0,1-10-22.67c-.75-2.83-1.54-5.64-2.29-8.47-.93-3.49-.08-5,3.55-6.15,11.54-3.64,23.37-5.67,35.57-4.83,22.56,1.54,40.27,10.7,51.78,29.35a86.7,86.7,0,0,1,10.43,25.65c.37,1.53.83,3,1.23,4.56,1,3.64-.17,5.4-4.08,6.15q-13,2.52-26.05,5C187.21,521.83,184.85,522.15,183.33,522.4ZM205.85,511c-2.08-1.26-3.84-2.38-5.66-3.4q-18.6-10.45-37.21-20.87a15.84,15.84,0,0,1-3.23-2.29c-1.07-1-.91-2.59.12-3.91a2.78,2.78,0,0,1,3.57-1,20,20,0,0,1,2.75,1.34q19.51,10.79,39,21.57c1.75,1,3.59,1.77,5.56,2.74.06-.55.16-.78.1-1-2.53-8.46-5.74-16.66-11.06-24-10.43-14.31-25.09-21.79-43.43-23-9.57-.64-19,.75-28.23,2.95-3.3.78-4.23,2.32-3,5.32,2.71,6.54,5.28,13.16,8.47,19.5a50.6,50.6,0,0,0,27.65,25.25c14.18,5.53,28.64,5.3,43.19,1.34A13.19,13.19,0,0,0,205.85,511Z" transform="translate(-78.55 -103.09)"/><path class="cls-3" d="M316.06,450.67c7.5-.06,14.77,1.31,22,2.81,3.36.7,6.7,1.41,10.06,2.1s4.57,2.21,3.91,5.44c-2.11,10.33-5.39,20.29-11.06,29.44a64.33,64.33,0,0,1-30.27,26.2c-6.68,2.82-13.8,4.1-21,5.24-5.6.88-10.78-.57-16.07-1.55-6.66-1.22-13.29-2.59-19.93-3.9a16.16,16.16,0,0,1-2.08-.5,3.57,3.57,0,0,1-2.75-3.76,5.15,5.15,0,0,1,.09-1.11c2.57-11.31,6.1-22.29,12.71-32.2,7.72-11.57,18.05-20.25,32-24.84A72.55,72.55,0,0,1,316.06,450.67Zm-53,60.26a9.35,9.35,0,0,0,1.38.67c12.86,3.68,25.77,4.21,38.65.24,13.26-4.09,23.09-12.19,30.32-23.2a81.64,81.64,0,0,0,10.79-26,6.59,6.59,0,0,0,.07-1.13,7.23,7.23,0,0,0-.92-.38c-11.19-3.11-22.56-5-34.27-3.53-18.77,2.35-33.19,10.95-42.58,26.51a83.53,83.53,0,0,0-8.32,19.74c-.1.34-.14.69-.31,1.55,2.06-1,3.78-1.72,5.38-2.61q17.32-9.58,34.62-19.23c2.26-1.26,4.47-2.61,6.77-3.81,2-1,3.37-.65,4.51,1,1.33,2,1.12,3.39-.8,4.65-1,.68-2.22,1.17-3.32,1.79L264.78,509.8C264.25,510.1,263.77,510.48,263.1,510.93Z" transform="translate(-78.55 -103.09)"/><path class="cls-3" d="M235.64,546.63c-1.1-1.29-2.21-2.45-3.12-3.73a3.77,3.77,0,0,1-.58-2.11c0-3.81.11-7.62.11-11.43q0-30,0-60.1c0-1.64-.06-3.28-.08-4.93a10.29,10.29,0,0,1,0-1.57c.25-1.8,2.39-3.94,3.8-3.84s3.71,2.57,3.73,4.22-.13,3-.13,4.48q0,34.88,0,69.74a3.08,3.08,0,0,0,0,.68C240.2,541.5,238.55,544.1,235.64,546.63Z" transform="translate(-78.55 -103.09)"/><path class="cls-3" d="M369.41,326a20.89,20.89,0,0,1-2.5-.93c-4.64-2.48-9.25-5-13.87-7.5a4.57,4.57,0,0,1-1-.68c-1.13-1.06-1.5-3.4-.72-4.34a4.37,4.37,0,0,1,4.59-.88c3.57,1.83,7.1,3.72,10.63,5.61,1.45.78,2.9,1.58,4.27,2.47a3.05,3.05,0,0,1,.74,4.86A9.79,9.79,0,0,1,369.41,326Z" transform="translate(-78.55 -103.09)"/><path class="cls-3" d="M99.57,178.5a3.1,3.1,0,0,1,4.14-3.08,8.8,8.8,0,0,1,2,.83Q112,179.61,118.3,183a6,6,0,0,1,1.33.94,3.1,3.1,0,0,1,.41,4.59,2.69,2.69,0,0,1-3.3,1.06,6.87,6.87,0,0,1-1.32-.53c-4.49-2.41-9-4.85-13.46-7.23A3.88,3.88,0,0,1,99.57,178.5Z" transform="translate(-78.55 -103.09)"/><path class="cls-3" d="M102.66,326.4c-.67-.39-1.15-.64-1.6-.94-2.47-1.6-2.49-4.54.12-6,4.63-2.65,9.37-5.14,14-7.72a4.07,4.07,0,0,1,4.28.28c1.14.64,1.16,1.68,1.16,2.76s-.75,1.58-1.58,2.07Z" transform="translate(-78.55 -103.09)"/><path class="cls-3" d="M171.63,139.11c-.62.9-1,1.61-1.58,2.26a3.26,3.26,0,0,1-5.39-.1q-4.6-7.05-8.89-14.28c-1.19-2,.1-4.16,2.45-4.57a2.51,2.51,0,0,1,2.83,1.11C164.52,128.7,168,133.84,171.63,139.11Z" transform="translate(-78.55 -103.09)"/><path class="cls-3" d="M239.6,114.41c-.12,2.38-.23,4.84-.4,7.29a4,4,0,0,1-3.14,3.51,3,3,0,0,1-2-.43,4,4,0,0,1-2-3.39c0-4.69-.07-9.39,0-14.08a4.44,4.44,0,0,1,1-2.44c.8-1,1.83-2,3.38-1.75,1.16.18,2.61,2,2.71,3.39C239.36,109.12,239.46,111.72,239.6,114.41Z" transform="translate(-78.55 -103.09)"/><path class="cls-3" d="M303.2,143.71a4.49,4.49,0,0,1-.44-.37c-2-2.62-2.22-5.16-.22-8,2.45-3.48,4.54-7.18,6.79-10.79a3.57,3.57,0,0,1,2.25-1.86c1.21-.29,2.35-.47,3.33.51a2.93,2.93,0,0,1,.72,3.68c-3,4.95-5.92,9.89-9.1,14.71C305.87,142.59,304.27,143.05,303.2,143.71Z" transform="translate(-78.55 -103.09)"/><path class="cls-3" d="M351.15,187.86c.07-2.28.53-4.26,3.05-5.52,4.14-2.06,8.15-4.36,12.24-6.52a7.47,7.47,0,0,1,2.23-.72,2.9,2.9,0,0,1,3.21,1.45c.65,1.17,1,2.41-.2,3.5a12.3,12.3,0,0,1-2.13,1.76c-3.62,2-7.24,4.05-10.93,6C355.41,189.44,354.73,189.38,351.15,187.86Z" transform="translate(-78.55 -103.09)"/><path class="cls-3" d="M392.91,250.24c-1.5,2.68-3.76,3.6-6.79,3.47-3.9-.16-7.81,0-11.72-.12a9.53,9.53,0,0,1-3.61-.88c-1-.5-2.05-1.43-1.67-2.69a3.52,3.52,0,0,1,2.94-2.63,23.24,23.24,0,0,1,3.33-.27c3.91,0,7.82-.07,11.73,0C390.69,247.17,390.84,247.31,392.91,250.24Z" transform="translate(-78.55 -103.09)"/><path class="cls-3" d="M78.55,250.36a5.19,5.19,0,0,1,5.38-3.25c4.3.08,8.6,0,12.9,0,2.53,0,4.52.73,5.58,3.26-1.24,1.92-2.85,3.4-5.73,3.32-3.89-.11-7.8-.14-11.7,0A6.56,6.56,0,0,1,78.55,250.36Z" transform="translate(-78.55 -103.09)"/><path class="cls-4" d="M205.85,511a13.19,13.19,0,0,1-1.38.63c-14.55,4-29,4.19-43.19-1.34a50.6,50.6,0,0,1-27.65-25.25c-3.19-6.34-5.76-13-8.47-19.5-1.25-3-.32-4.54,3-5.32,9.26-2.2,18.66-3.59,28.23-2.95,18.34,1.21,33,8.69,43.43,23,5.32,7.3,8.53,15.5,11.06,24,.06.19,0,.42-.1,1-2-1-3.81-1.78-5.56-2.74q-19.51-10.75-39-21.57a20,20,0,0,0-2.75-1.34,2.78,2.78,0,0,0-3.57,1c-1,1.32-1.19,2.88-.12,3.91a15.84,15.84,0,0,0,3.23,2.29q18.59,10.46,37.21,20.87C202,508.65,203.77,509.77,205.85,511Z" transform="translate(-78.55 -103.09)"/><path class="cls-4" d="M260.8,512.47c.7-.47,1.2-.86,1.75-1.17l41.84-23.39c1.13-.64,2.36-1.15,3.44-1.86,2-1.3,2.2-2.77.8-4.77-1.18-1.71-2.64-2.1-4.69-1-2.39,1.25-4.68,2.64-7,3.95q-18,10-35.94,19.93c-1.67.92-3.45,1.67-5.6,2.7.18-.87.22-1.23.32-1.58a85.22,85.22,0,0,1,8.56-20.33c9.7-16,24.67-24.94,44.2-27.45,12.18-1.56,24,.31,35.7,3.45a8.24,8.24,0,0,1,1,.38,8.36,8.36,0,0,1-.07,1.17c-2.28,9.42-5.63,18.46-11.1,26.75-7.48,11.34-17.67,19.71-31.45,24-13.39,4.15-26.84,3.67-40.24-.05A9.86,9.86,0,0,1,260.8,512.47Z" transform="translate(-78.55 -103.09)"/><path class="cls-5" d="M279.59,357H194.8c-3,0-3.05-.06-2.81-3a10,10,0,0,0-3.39-8.85,46,46,0,0,0-6.9-4.86,127.41,127.41,0,0,1-24-17.66A93.86,93.86,0,0,1,130.23,274a106.35,106.35,0,0,1-2.35-30.44,91.79,91.79,0,0,1,16.09-46c16.3-23.87,38.92-39.64,68.34-46,26.81-5.75,52.35-1.76,76.14,11.05,25.82,13.91,43.36,34.37,51.31,61.59,14,47.91-10.53,97.29-54.51,118.39a22.78,22.78,0,0,0-2.28,1.25,6.73,6.73,0,0,0-3.4,6.35C279.67,352.37,279.59,354.54,279.59,357Z" transform="translate(-78.55 -103.09)"/><path class="cls-6" d="M192.07,364h87.3v16c-1.91.08-3.73.21-5.54.22q-18.22.09-36.46.12c-3,0-5.91-.12-8.86-.09a4.69,4.69,0,0,0-2.25.59c-1.34.79-2.55,1.75-3.92,2.72,1.7,2.16,3.64,3.52,6.44,3.52,1.68,0,3.36.06,5,.06l43.18-.06c.78,0,1.56.07,2.48.11v15c-1.7.12-3.42.34-5.14.34q-18.1.09-36.22.1c-3.76,0-7.51,0-11.27,0a5.54,5.54,0,0,0-1.87.28c-1.45.56-2.77,2.39-2.63,3.49s1.72,2.53,3.41,2.79a19.57,19.57,0,0,0,2.87.14q21.83.09,43.66.17c2.3,0,4.6.15,6.84.22.51,1.79.63,12.09.23,14.91-1.68.52-84.51.64-87.29.1Z" transform="translate(-78.55 -103.09)"/><path class="cls-6" d="M235,443.48H220.61c-.72,0-1.44,0-2.16,0-2.46-.2-3.22-1-3.22-3.5,0-1.52,0-3,0-4.56,0-2.29.88-3.24,3.15-3.32s4.64,0,7,0h25.18a15.55,15.55,0,0,1,2.16.06,2.63,2.63,0,0,1,2.58,2.88c.07,1.76.07,3.52,0,5.28,0,2.11-.76,2.9-2.81,3.15a11.49,11.49,0,0,1-1.44.05H235Z" transform="translate(-78.55 -103.09)"/></svg>